<svg xmlns="http://www.w3.org/2000/svg" xmlns:xlink="http://www.w3.org/1999/xlink" width="36" height="36" viewBox="0 0 36 36">
  <defs>
    <clipPath id="clip-path">
      <rect id="Rectangle_1010" data-name="Rectangle 1010" width="29.356" height="36" fill="none"/>
    </clipPath>
  </defs>
  <g id="icon-razerstreamer" transform="translate(0.629 0)">
    <rect id="bounding_box" data-name="bounding box" width="36" height="36" transform="translate(-0.629 0)" fill="rgba(255,255,255,0)"/>
    <g id="Group_1439" data-name="Group 1439" transform="translate(2.695 0)" clip-path="url(#clip-path)">
      <path id="Path_8364" data-name="Path 8364" d="M3.678,13.223H5.931a.756.756,0,0,1,.756.756l0,8.9a.756.756,0,0,1-.756.756H3.675a.756.756,0,0,1-.756-.757l0-8.9a.757.757,0,0,1,.757-.756" fill="#eee"/>
      <path id="Path_8365" data-name="Path 8365" d="M1.977,22.432h0A5.094,5.094,0,0,1,0,18.425a5.008,5.008,0,0,1,.716-2.571,5.284,5.284,0,0,1,1.273-1.437,1.476,1.476,0,0,0-.043.356l0,7.347a1.568,1.568,0,0,0,.032.313Z" fill="#eee"/>
      <path id="Path_8366" data-name="Path 8366" d="M25.65,23.638,23.4,23.632a.755.755,0,0,1-.754-.758l.024-8.9a.756.756,0,0,1,.758-.754l2.253.006a.755.755,0,0,1,.754.758l-.024,8.9a.756.756,0,0,1-.758.754" fill="#eee"/>
      <path id="Path_8367" data-name="Path 8367" d="M27.379,14.432h0a5.294,5.294,0,0,1,1.267,1.441,5.015,5.015,0,0,1,.709,2.577,5.093,5.093,0,0,1-1.989,4,1.509,1.509,0,0,0,.034-.314l.02-7.354a1.572,1.572,0,0,0-.041-.355Z" fill="#eee"/>
      <path id="Path_8368" data-name="Path 8368" d="M25.835,12.514h0l-2.29-.022a8.33,8.33,0,0,0-2.36-4.675,1.411,1.411,0,0,0,.134-.592c0-1.627-2.989-2.95-6.665-2.95S7.989,5.6,7.989,7.225a1.376,1.376,0,0,0,.136.591,7.407,7.407,0,0,0-2.241,4.676l-2.408.019a8.781,8.781,0,0,1,.865-3.3,9.828,9.828,0,0,1,2.4-3.129A11.358,11.358,0,0,1,10.3,3.976a12.676,12.676,0,0,1,8.715,0,11.362,11.362,0,0,1,3.559,2.109,9.835,9.835,0,0,1,2.4,3.129,8.8,8.8,0,0,1,.866,3.3Z" fill="#eee"/>
      <path id="Path_8369" data-name="Path 8369" d="M8.773,7.762h0a1.286,1.286,0,0,1-.029-.268c0-1.479,2.651-2.682,5.911-2.682s5.911,1.2,5.911,2.682a1.241,1.241,0,0,1-.029.264,2.909,2.909,0,0,0-1.9-1.712,10.731,10.731,0,0,0-3.978-.7,10.752,10.752,0,0,0-3.982.7,2.9,2.9,0,0,0-1.9,1.716" fill="#eee"/>
      <path id="Path_8370" data-name="Path 8370" d="M4.809,7.076h0c-.125-.417-1.2-4.128-.5-6.416A.834.834,0,0,1,5.225.008C6.944.084,10.317,3.3,10.346,3.33c-.011,0-.436.162-.966.394-.806-.694-2.292-1.861-3.187-1.9a.632.632,0,0,0-.693.49,7.967,7.967,0,0,0,.144,3.913c-.276.27-.568.565-.821.838l-.012.013Z" fill="#eee"/>
      <path id="Path_8371" data-name="Path 8371" d="M24.491,7.063c-.256-.273-.548-.568-.822-.837a7.9,7.9,0,0,0,.136-3.913.632.632,0,0,0-.694-.49c-.892.041-2.377,1.209-3.184,1.9-.53-.231-.957-.391-.966-.394C19,3.3,22.359.085,24.078.007A.836.836,0,0,1,25,.658c.695,2.286-.372,6-.494,6.416Z" fill="#eee"/>
      <path id="Path_8372" data-name="Path 8372" d="M14.712,7.749a7.064,7.064,0,0,1,7.011,7.126v3.333a6.966,6.966,0,0,1-7.011,7.011,7.064,7.064,0,0,1-7.126-7.011V14.875A7.162,7.162,0,0,1,14.712,7.749Z" fill="#eee" fill-rule="evenodd"/>
      <path id="Path_8373" data-name="Path 8373" d="M9.54,25.2a18.063,18.063,0,0,1-4.6,2.414C2.759,28.3.805,29.1.575,30.828.346,32.667.346,32.9.346,32.9c4.942,4.138,23.676,4.138,28.618,0,0,0,0-.23-.23-2.069C28.619,29.1,26.55,28.3,24.367,27.61a20.349,20.349,0,0,1-4.6-2.414,9.5,9.5,0,0,1-10.229,0Z" fill="#eee" fill-rule="evenodd"/>
    </g>
  </g>
</svg>
