<svg xmlns="http://www.w3.org/2000/svg" xmlns:xlink="http://www.w3.org/1999/xlink" width="36" height="28" viewBox="0 0 36 28">
  <defs>
    <clipPath id="clip-path">
      <rect id="Rectangle_64" data-name="Rectangle 64" width="34.297" height="25.954" transform="translate(0 0)" fill="none"/>
    </clipPath>
  </defs>
  <g id="icon-metaquest" transform="translate(0.852 0.94)">
    <g id="Group_20" data-name="Group 20" clip-path="url(#clip-path)">
      <path id="Path_260" data-name="Path 260" d="M24.584,25.944a28.165,28.165,0,0,1-3.016-.411,26.4,26.4,0,0,0-2.785-.4c-.2-.011-1.134-.063-1.588-.063s-1.329.049-1.513.059a26.621,26.621,0,0,0-2.859.408c-1.895.328-2.75.4-2.967.41l-.24.009a8.743,8.743,0,0,1-3-.633,16.422,16.422,0,0,1-3.453-1.652l-.167-.1a2.167,2.167,0,0,1-1.109-1.886,15.654,15.654,0,0,1,.208-2.651c.167-1.14.473-2.964.834-4.664a3.384,3.384,0,0,1,.918-1.8,1.834,1.834,0,0,1,.282-.223l.1-.068a14.068,14.068,0,0,1,4.156-1.166,55.447,55.447,0,0,1,8.047-.517c.477,0,.761,0,.807.005.016,0,.293-.005.722-.005a55.348,55.348,0,0,1,8.048.518,16.894,16.894,0,0,1,3.76.949,2.066,2.066,0,0,1,.3.155l.175.112a2.063,2.063,0,0,1,.213.158,3.283,3.283,0,0,1,1.014,1.88c.359,1.691.666,3.518.833,4.665a15.666,15.666,0,0,1,.209,2.648,2.16,2.16,0,0,1-1.1,1.884l-.174.1a16.286,16.286,0,0,1-3.45,1.651,8.7,8.7,0,0,1-2.959.634l-.236-.009" fill="#eee"/>
      <path id="Path_261" data-name="Path 261" d="M29.7,3.674a21.205,21.205,0,0,0-8.114-2.652V.5a.5.5,0,0,0-.5-.5H13.3a.5.5,0,0,0-.5.5V2.95H11.612V1.192H11.6A20.394,20.394,0,0,0,4.685,3.674C1.05,5.919.836,8.186.9,9.041l1.047,1.818s2.31-3.208,9.708-4.64c.25-.05,1.144-.15,1.144-.15v0a.5.5,0,0,0,.5.5h7.791a.5.5,0,0,0,.5-.5V4.444h1.143V6.219c7.4,1.432,9.708,4.64,9.708,4.64L33.49,9.041c.064-.855-.15-3.122-3.785-5.367" fill="#eee"/>
      <path id="Path_262" data-name="Path 262" d="M1.785,13.668a5.944,5.944,0,0,1-1.459-2.5S-.043,15.512,0,16.33a6.824,6.824,0,0,0,1.089,2.486s-.2-4.009.691-5.148" fill="#eee"/>
      <path id="Path_263" data-name="Path 263" d="M32.513,13.668a5.944,5.944,0,0,0,1.459-2.5s.369,4.346.321,5.164a6.831,6.831,0,0,1-1.09,2.486s.2-4.009-.69-5.148" fill="#eee"/>
    </g>
    <rect id="Rectangle_62" data-name="Rectangle 62" width="36" height="28" transform="translate(-0.852 -0.94)" fill="rgba(255,255,255,0)"/>
  </g>
</svg>
