<svg xmlns="http://www.w3.org/2000/svg" width="36" height="36" viewBox="0 0 36 36">
  <g id="icon-nexus" transform="translate(0.002 0.002)">
    <path id="Subtraction_322" data-name="Subtraction 322" d="M18,36A18,18,0,0,1,18,0a18,18,0,0,1,12.73,30.727A17.87,17.87,0,0,1,18,36ZM17.32,7.746a10.264,10.264,0,1,0,9.813,13.336H23.945a7.36,7.36,0,1,1-8.633-10.164,7.241,7.241,0,0,1,1.938-.264,7.382,7.382,0,0,1,6.465,3.834h3.254A10.306,10.306,0,0,0,17.32,7.746Zm-2.266,11.4h13.23v1.266a.45.45,0,0,0,.266.412.428.428,0,0,0,.2.049.51.51,0,0,0,.289-.1L32.445,18a.454.454,0,0,0,.172-.361.471.471,0,0,0-.172-.359l-3.406-2.787a.512.512,0,0,0-.3-.105.469.469,0,0,0-.453.443V16.08H14.977a.878.878,0,0,0-.395.084.543.543,0,0,0-.238.236.846.846,0,0,0-.082.465v1.5a.906.906,0,0,0,.082.475.6.6,0,0,0,.238.225.845.845,0,0,0,.379.088h.047C15.023,19.152,15.039,19.148,15.055,19.148Z" transform="translate(-0.002 -0.002)" fill="#eee"/>
  </g>
</svg>
